<?xml version="1.0" encoding="UTF-8"?>
<svg width="1176px" height="350px" viewBox="0 0 1176 350" xmlns="http://www.w3.org/2000/svg" xmlns:xlink="http://www.w3.org/1999/xlink" version="1.1">
 <!-- Generated by Pixelmator Pro 1.6.1 -->
 <g id="maerteijn">
  <path id="aerteijn" d="M1060.665 49.263 L1085.069 49.263 1085.069 65.261 C1087.6 52.788 1101.97 46.552 1128.182 46.552 1144.993 46.552 1156.788 49.58 1163.567 55.635 1170.346 61.691 1173.735 71.226 1173.735 84.242 L1173.735 180.5 1149.332 180.5 1149.332 85.597 C1149.332 82.163 1149.06 79.361 1148.518 77.192 1147.976 75.023 1146.891 72.853 1145.264 70.684 1141.649 66.165 1133.605 63.905 1121.132 63.905 1111.551 63.905 1104.185 64.583 1099.033 65.939 1093.881 67.295 1090.266 69.509 1088.187 72.582 1086.108 75.655 1085.069 79.994 1085.069 85.597 L1085.069 180.5 1060.665 180.5 Z M988.539 1.812 L1012.943 1.812 1012.943 27.3 988.539 27.3 Z M969.288 240.153 C964.226 240.153 959.617 239.792 955.459 239.068 L955.459 223.071 C959.255 223.794 962.69 224.155 965.763 224.155 973.717 224.155 979.501 222.573 983.117 219.41 986.732 216.247 988.539 210.507 988.539 202.192 L988.539 49.263 1012.943 49.263 1012.943 200.294 C1012.943 214.936 1009.508 225.24 1002.639 231.205 995.77 237.17 984.653 240.153 969.288 240.153 Z M916.142 1.812 L940.546 1.812 940.546 27.3 916.142 27.3 Z M916.142 49.263 L940.546 49.263 940.546 180.5 916.142 180.5 Z M820.969 183.212 C780.838 183.212 760.773 169.835 760.773 143.081 L760.773 91.292 C760.773 75.384 765.338 63.951 774.466 56.991 783.595 50.032 798.373 46.552 818.799 46.552 838.142 46.552 852.106 49.896 860.692 56.584 869.279 63.273 873.572 74.842 873.572 91.292 L873.572 120.305 785.448 120.305 785.448 140.099 C785.448 149.137 788.611 155.645 794.938 159.621 801.265 163.598 811.026 165.587 824.223 165.587 836.695 165.587 851.428 163.418 868.42 159.079 L868.42 177.788 C851.789 181.404 835.972 183.212 820.969 183.212 Z M849.168 104.307 L849.168 83.699 C849.168 75.746 846.773 70.277 841.983 67.295 837.193 64.312 829.013 62.821 817.444 62.821 806.236 62.821 798.102 64.312 793.04 67.295 787.979 70.277 785.448 75.746 785.448 83.699 L785.448 104.307 Z M706.272 183.212 C695.065 183.212 686.298 181.991 679.971 179.551 673.644 177.111 669.079 172.953 666.278 167.078 663.476 161.203 662.075 152.933 662.075 142.268 L662.075 65.261 632.791 65.261 632.791 49.263 662.075 49.263 662.075 8.591 686.749 8.591 686.749 49.263 733.658 49.263 733.658 65.261 686.749 65.261 686.749 143.624 C686.749 150.131 687.518 155.012 689.054 158.266 690.591 161.52 693.302 163.824 697.189 165.18 701.075 166.536 706.724 167.214 714.136 167.214 716.486 167.214 722.993 166.491 733.658 165.044 L733.658 181.042 C724.439 182.488 715.311 183.212 706.272 183.212 Z M550.632 49.263 L573.68 49.263 573.68 70.684 C573.68 66.527 575.487 62.595 579.103 58.889 582.718 55.183 587.328 52.201 592.931 49.941 598.535 47.682 604.049 46.552 609.472 46.552 L621.402 46.552 621.402 67.43 607.845 67.43 C596.276 67.43 587.915 68.922 582.763 71.904 577.611 74.887 575.036 80.265 575.036 88.038 L575.036 180.5 550.632 180.5 Z M455.458 183.212 C415.328 183.212 395.263 169.835 395.263 143.081 L395.263 91.292 C395.263 75.384 399.827 63.951 408.956 56.991 418.085 50.032 432.862 46.552 453.289 46.552 472.631 46.552 486.595 49.896 495.182 56.584 503.768 63.273 508.061 74.842 508.061 91.292 L508.061 120.305 419.938 120.305 419.938 140.099 C419.938 149.137 423.101 155.645 429.428 159.621 435.755 163.598 445.516 165.587 458.712 165.587 471.185 165.587 485.917 163.418 502.91 159.079 L502.91 177.788 C486.279 181.404 470.462 183.212 455.458 183.212 Z M483.658 104.307 L483.658 83.699 C483.658 75.746 481.263 70.277 476.473 67.295 471.682 64.312 463.503 62.821 451.933 62.821 440.726 62.821 432.591 64.312 427.53 67.295 422.468 70.277 419.938 75.746 419.938 83.699 L419.938 104.307 Z M289.243 183.212 C276.77 183.212 267.145 182.037 260.366 179.687 253.587 177.337 248.706 173.179 245.724 167.214 242.741 161.248 241.25 152.662 241.25 141.454 241.25 131.512 242.651 123.784 245.453 118.271 248.254 112.758 253.045 108.826 259.824 106.476 266.602 104.126 276.228 102.951 288.701 102.951 L328.018 102.951 328.018 82.073 C328.018 77.192 327.069 73.441 325.171 70.82 323.273 68.199 320.109 66.346 315.68 65.261 311.252 64.177 304.789 63.634 296.293 63.634 282.736 63.634 267.732 64.719 251.282 66.888 L251.282 48.992 C269.178 47.365 285.357 46.552 299.818 46.552 315.003 46.552 326.21 47.682 333.441 49.941 340.672 52.201 345.643 56.132 348.354 61.736 351.066 67.34 352.421 76.017 352.421 87.767 L352.421 180.5 328.831 180.5 328.831 168.027 C326.843 178.15 313.647 183.212 289.243 183.212 Z M293.311 167.214 C302.168 167.214 309.67 166.581 315.816 165.316 323.951 163.689 328.018 159.893 328.018 153.927 L328.018 118.135 290.328 118.135 C282.555 118.135 276.951 118.723 273.517 119.898 270.082 121.073 267.822 123.287 266.738 126.541 265.653 129.795 265.111 135.037 265.111 142.268 265.111 148.775 265.744 153.792 267.009 157.317 268.274 160.842 270.534 163.372 273.788 164.909 277.042 166.445 281.922 167.214 288.43 167.214 Z" fill="#ffffff" fill-opacity="1" stroke="#dddddd" stroke-width="4" stroke-opacity="1" stroke-linejoin="round"/>
  <path id="m" d="M2.15 49.138 L26.553 49.138 26.553 65.136 C29.084 52.663 43.816 46.427 70.751 46.427 92.624 46.427 106.271 52.392 111.694 64.323 113.321 58.538 118.247 54.109 126.472 51.036 134.697 47.963 144.775 46.427 156.705 46.427 172.974 46.427 184.453 49.455 191.141 55.51 197.83 61.566 201.174 71.101 201.174 84.117 L201.174 180.375 176.77 180.375 176.77 85.744 C176.77 82.309 176.499 79.507 175.957 77.338 175.415 75.169 174.33 73 172.703 70.83 169.088 66.311 161.044 64.052 148.571 64.052 138.99 64.052 131.85 64.684 127.15 65.95 122.45 67.215 119.241 69.384 117.524 72.457 115.807 75.53 114.948 79.959 114.948 85.744 L114.948 180.375 90.545 180.375 90.545 85.744 C90.545 82.309 90.273 79.507 89.731 77.338 89.189 75.169 88.104 73 86.477 70.83 82.862 66.311 74.908 64.052 62.616 64.052 52.674 64.052 45.172 64.684 40.111 65.95 35.049 67.215 31.524 69.339 29.536 72.322 27.547 75.304 26.553 79.778 26.553 85.744 L26.553 180.375 2.15 180.375 Z" fill="#fb7516" fill-opacity="1" stroke="#dddddd" stroke-width="4" stroke-opacity="1" stroke-linejoin="round"/>
 </g>
 <path id="Freelance-Software-Developer" d="M1046.097 340.844 L1046.097 276.489 1054.375 276.489 1054.375 281.324 1054.468 281.324 C1055.15 277.48 1060.264 275.559 1069.812 275.559 1075.516 275.559 1079.826 276.752 1082.74 279.139 1085.654 281.526 1087.111 284.579 1087.111 288.299 L1087.111 306.807 C1087.111 309.473 1086.724 311.797 1085.949 313.781 1085.174 315.766 1084.165 317.316 1082.925 318.432 1081.809 319.486 1080.275 320.322 1078.322 320.942 1076.369 321.562 1074.431 321.965 1072.509 322.151 1070.773 322.337 1068.667 322.43 1066.187 322.43 1063.459 322.43 1060.962 322.104 1058.699 321.453 1056.436 320.802 1055.026 319.857 1054.468 318.617 L1054.468 340.844 1046.097 340.844 Z M552.175 322.43 C548.331 322.43 545.324 322.011 543.154 321.174 540.984 320.337 539.418 318.912 538.457 316.897 537.496 314.882 537.015 312.045 537.015 308.387 L537.015 281.975 528.087 281.975 526.972 281.975 513.115 281.975 513.115 321.5 504.746 321.5 504.746 281.975 494.421 281.975 494.421 276.489 504.746 276.489 504.746 269.235 C504.746 264.337 506.125 260.817 508.884 258.678 511.643 256.539 515.844 255.471 521.486 255.471 523.594 255.471 526.103 255.626 529.017 255.936 L529.017 261.422 C526.661 261.112 524.243 260.957 521.763 260.957 518.663 260.957 516.448 261.515 515.115 262.631 513.782 263.747 513.115 265.762 513.115 268.676 L513.115 276.489 526.972 276.489 528.087 276.489 537.015 276.489 537.015 262.537 545.48 262.537 545.48 276.489 561.568 276.489 561.568 281.975 545.48 281.975 545.48 308.852 C545.48 311.084 545.742 312.757 546.269 313.873 546.796 314.989 547.727 315.781 549.06 316.246 550.393 316.711 552.331 316.944 554.873 316.944 555.679 316.944 557.91 316.695 561.568 316.199 L561.568 321.686 C558.406 322.182 555.275 322.43 552.175 322.43 Z M652.615 322.43 C648.337 322.43 645.035 322.027 642.71 321.221 640.385 320.415 638.712 318.99 637.689 316.944 636.666 314.898 636.154 311.952 636.154 308.108 636.154 304.698 636.634 302.048 637.595 300.156 638.556 298.266 640.2 296.918 642.525 296.112 644.85 295.306 648.151 294.903 652.429 294.903 L665.914 294.903 665.914 287.74 C665.914 286.066 665.588 284.78 664.937 283.881 664.286 282.982 663.202 282.347 661.683 281.975 660.164 281.603 657.947 281.416 655.033 281.416 650.383 281.416 645.237 281.789 639.595 282.533 L639.595 276.395 C645.733 275.837 651.282 275.559 656.242 275.559 661.45 275.559 665.295 275.946 667.775 276.721 670.255 277.496 671.958 278.844 672.888 280.766 673.818 282.688 674.285 285.664 674.285 289.694 L674.285 321.5 666.193 321.5 666.193 317.223 C665.511 320.695 660.985 322.43 652.615 322.43 Z M734.828 322.43 C721.064 322.43 714.181 317.842 714.181 308.666 L714.181 290.903 C714.181 285.447 715.747 281.526 718.878 279.139 722.009 276.752 727.077 275.559 734.083 275.559 740.718 275.559 745.506 276.704 748.451 278.998 751.396 281.292 752.869 285.261 752.869 290.903 L752.869 300.854 722.644 300.854 722.644 307.643 C722.644 310.743 723.73 312.974 725.9 314.338 728.07 315.702 731.417 316.385 735.943 316.385 740.221 316.385 745.273 315.641 751.101 314.153 L751.101 320.571 C745.397 321.811 739.974 322.43 734.828 322.43 Z M860.75 322.43 C846.985 322.43 840.103 317.842 840.103 308.666 L840.103 290.903 C840.103 285.447 841.669 281.526 844.8 279.139 847.931 276.752 852.999 275.559 860.005 275.559 866.639 275.559 871.428 276.704 874.373 278.998 877.318 281.292 878.791 285.261 878.791 290.903 L878.791 300.854 848.566 300.854 848.566 307.643 C848.566 310.743 849.652 312.974 851.822 314.338 853.992 315.702 857.339 316.385 861.865 316.385 866.143 316.385 871.197 315.641 877.025 314.153 L877.025 320.571 C871.321 321.811 865.896 322.43 860.75 322.43 Z M947.984 322.43 C934.22 322.43 927.337 317.842 927.337 308.666 L927.337 290.903 C927.337 285.447 928.902 281.526 932.033 279.139 935.164 276.752 940.234 275.559 947.24 275.559 953.874 275.559 958.662 276.704 961.607 278.998 964.552 281.292 966.025 285.261 966.025 290.903 L966.025 300.854 935.8 300.854 935.8 307.643 C935.8 310.743 936.884 312.974 939.054 314.338 941.224 315.702 944.573 316.385 949.099 316.385 953.377 316.385 958.429 315.641 964.257 314.153 L964.257 320.571 C958.553 321.811 953.13 322.43 947.984 322.43 Z M1015.128 322.43 C1011.16 322.43 1008.185 322.291 1006.201 322.012 1004.217 321.733 1002.234 321.128 1000.25 320.198 998.203 319.268 996.715 317.765 995.785 315.688 994.855 313.611 994.39 310.806 994.39 307.272 L994.39 291.647 C994.39 288.857 994.732 286.407 995.414 284.299 996.096 282.191 996.995 280.549 998.111 279.371 999.041 278.317 1000.45 277.496 1002.341 276.906 1004.232 276.318 1006.17 275.93 1008.154 275.744 1010.386 275.62 1012.71 275.559 1015.128 275.559 1018.352 275.559 1020.786 275.636 1022.429 275.791 1024.072 275.946 1025.823 276.272 1027.683 276.768 1029.605 277.326 1031.094 278.162 1032.148 279.278 1033.202 280.394 1034.101 282.006 1034.845 284.114 1035.527 286.284 1035.869 288.795 1035.869 291.647 L1035.869 307.272 C1035.869 312.542 1034.66 316.385 1032.242 318.803 1031.25 319.795 1029.822 320.569 1027.962 321.127 1026.102 321.685 1024.181 322.058 1022.197 322.244 1019.841 322.368 1017.484 322.43 1015.128 322.43 Z M1116.126 322.43 C1102.362 322.43 1095.48 317.842 1095.48 308.666 L1095.48 290.903 C1095.48 285.447 1097.046 281.526 1100.177 279.139 1103.308 276.752 1108.376 275.559 1115.382 275.559 1122.016 275.559 1126.807 276.704 1129.751 278.998 1132.697 281.292 1134.169 285.261 1134.169 290.903 L1134.169 300.854 1103.945 300.854 1103.945 307.643 C1103.945 310.743 1105.029 312.974 1107.199 314.338 1109.369 315.702 1112.718 316.385 1117.244 316.385 1121.522 316.385 1126.574 315.641 1132.402 314.153 L1132.402 320.571 C1126.698 321.811 1121.273 322.43 1116.126 322.43 Z M576.914 321.5 L561.753 276.489 570.96 276.489 581.935 313.502 582.494 313.502 593.095 276.489 602.488 276.489 613.462 313.502 614.019 313.502 624.623 276.489 633.177 276.489 618.39 321.5 608.441 321.5 597.558 285.137 586.865 321.5 576.914 321.5 Z M686.001 321.5 L686.001 276.489 693.908 276.489 693.908 283.834 C693.908 282.408 694.527 281.06 695.767 279.789 697.007 278.518 698.587 277.496 700.509 276.721 702.431 275.946 704.323 275.559 706.183 275.559 L710.275 275.559 710.275 282.719 705.625 282.719 C701.656 282.719 698.79 283.231 697.023 284.254 695.256 285.277 694.373 287.121 694.373 289.787 L694.373 321.5 686.001 321.5 Z M781.978 321.5 L781.978 261.143 805.972 261.143 C822.898 261.143 831.361 266.91 831.361 278.442 L831.361 305.131 C831.361 316.043 822.93 321.5 806.066 321.5 L781.978 321.5 Z M898.228 321.5 L882.046 276.489 890.88 276.489 903.343 314.246 903.808 314.246 915.898 276.489 923.99 276.489 908.273 321.5 898.228 321.5 Z M975.976 321.5 L975.976 256.401 984.345 256.401 984.345 321.5 975.976 321.5 Z M1144.121 321.5 L1144.121 276.489 1152.025 276.489 1152.025 283.834 C1152.025 282.408 1152.644 281.06 1153.884 279.789 1155.124 278.518 1156.706 277.496 1158.628 276.721 1160.55 275.946 1162.44 275.559 1164.3 275.559 L1168.392 275.559 1168.392 282.719 1163.744 282.719 C1159.776 282.719 1156.907 283.231 1155.14 284.254 1153.373 285.277 1152.49 287.121 1152.49 289.787 L1152.49 321.5 1144.121 321.5 Z M652.335 316.944 L654.009 316.944 C657.047 316.944 659.622 316.725 661.73 316.291 664.52 315.733 665.914 314.433 665.914 312.387 L665.914 300.11 652.988 300.11 C650.322 300.11 648.398 300.312 647.22 300.715 646.042 301.118 645.268 301.876 644.896 302.992 644.524 304.108 644.337 305.907 644.337 308.387 644.337 310.619 644.556 312.34 644.99 313.549 645.424 314.758 646.198 315.626 647.314 316.153 648.43 316.68 650.103 316.944 652.335 316.944 Z M1015.128 316.944 C1017.732 316.944 1019.624 316.88 1020.802 316.756 1021.98 316.632 1023.128 316.293 1024.244 315.735 1025.36 315.239 1026.15 314.417 1026.615 313.27 1027.08 312.123 1027.312 310.527 1027.312 308.481 L1027.312 290.252 C1027.312 287.462 1026.971 285.431 1026.289 284.16 1025.607 282.889 1024.445 282.052 1022.802 281.649 1021.159 281.246 1018.6 281.045 1015.128 281.045 1011.656 281.045 1009.1 281.246 1007.457 281.649 1005.814 282.052 1004.65 282.889 1003.968 284.16 1003.286 285.431 1002.947 287.462 1002.947 290.252 L1002.947 308.481 C1002.947 310.527 1003.179 312.123 1003.644 313.27 1004.109 314.417 1004.899 315.239 1006.015 315.735 1007.131 316.293 1008.279 316.632 1009.457 316.756 1010.635 316.88 1012.524 316.944 1015.128 316.944 Z M1066.373 316.756 C1069.597 316.756 1072.06 316.524 1073.765 316.059 1075.47 315.594 1076.695 314.742 1077.439 313.502 1078.183 312.262 1078.554 310.37 1078.554 307.828 L1078.554 291.276 C1078.554 288.486 1078.183 286.407 1077.439 285.043 1076.695 283.679 1075.47 282.766 1073.765 282.301 1072.06 281.836 1069.565 281.604 1066.279 281.604 1062.993 281.604 1060.543 281.836 1058.931 282.301 1057.319 282.766 1056.174 283.665 1055.492 284.998 1054.81 286.331 1054.468 288.424 1054.468 291.276 L1054.468 307.828 C1054.468 310.37 1054.824 312.262 1055.537 313.502 1056.25 314.742 1057.445 315.594 1059.119 316.059 1060.793 316.524 1063.211 316.756 1066.373 316.756 Z M791 315.362 L805.414 315.362 C816.946 315.362 822.712 311.89 822.712 304.946 L822.712 278.348 C822.712 276.116 822.248 274.224 821.318 272.674 820.388 271.124 819.086 269.979 817.412 269.235 815.738 268.553 814.001 268.072 812.203 267.793 810.405 267.514 808.296 267.373 805.878 267.373 L791 267.373 791 315.362 Z M722.644 295.367 L744.5 295.367 744.5 288.299 C744.5 285.571 743.678 283.695 742.035 282.672 740.392 281.649 737.587 281.139 733.619 281.139 729.775 281.139 726.984 281.649 725.248 282.672 723.512 283.695 722.644 285.571 722.644 288.299 L722.644 295.367 Z M848.566 295.367 L870.421 295.367 870.421 288.299 C870.421 285.571 869.6 283.695 867.957 282.672 866.314 281.649 863.509 281.139 859.541 281.139 855.697 281.139 852.905 281.649 851.169 282.672 849.433 283.695 848.566 285.571 848.566 288.299 L848.566 295.367 Z M935.8 295.367 L957.656 295.367 957.656 288.299 C957.656 285.571 956.834 283.695 955.191 282.672 953.548 281.649 950.743 281.139 946.775 281.139 942.931 281.139 940.14 281.649 938.404 282.672 936.668 283.695 935.8 285.571 935.8 288.299 L935.8 295.367 Z M1103.945 295.367 L1125.798 295.367 1125.798 288.299 C1125.798 285.571 1124.979 283.695 1123.335 282.672 1121.693 281.649 1118.885 281.139 1114.917 281.139 1111.073 281.139 1108.284 281.649 1106.548 282.672 1104.812 283.695 1103.945 285.571 1103.945 288.299 L1103.945 295.367 Z M469.777 322.43 C465.809 322.43 462.833 322.29 460.849 322.012 458.865 321.732 456.881 321.128 454.897 320.198 452.851 319.268 451.363 317.765 450.433 315.688 449.503 313.61 449.038 310.805 449.038 307.271 L449.038 291.647 C449.038 288.857 449.379 286.408 450.061 284.3 450.743 282.192 451.642 280.549 452.758 279.371 453.688 278.317 455.098 277.496 456.99 276.906 458.881 276.318 460.818 275.93 462.802 275.744 465.034 275.62 467.359 275.558 469.777 275.558 473.001 275.558 475.434 275.635 477.078 275.79 478.721 275.945 480.472 276.271 482.332 276.767 484.254 277.325 485.742 278.162 486.796 279.278 487.85 280.394 488.749 282.006 489.493 284.114 490.175 286.284 490.516 288.795 490.516 291.647 L490.516 307.271 C490.516 312.541 489.307 316.385 486.889 318.803 485.897 319.795 484.471 320.57 482.611 321.128 480.751 321.686 478.829 322.058 476.845 322.244 474.489 322.368 472.133 322.43 469.777 322.43 Z M469.777 316.943 C472.381 316.943 474.272 316.881 475.45 316.757 476.628 316.633 477.775 316.292 478.891 315.734 480.007 315.238 480.797 314.417 481.263 313.27 481.728 312.122 481.96 310.526 481.96 308.48 L481.96 290.252 C481.96 287.462 481.619 285.432 480.937 284.16 480.255 282.889 479.092 282.052 477.449 281.65 475.806 281.246 473.249 281.045 469.777 281.045 466.305 281.045 463.747 281.246 462.104 281.65 460.461 282.052 459.299 282.889 458.617 284.16 457.935 285.432 457.594 287.462 457.594 290.252 L457.594 308.48 C457.594 310.526 457.827 312.122 458.292 313.27 458.757 314.417 459.547 315.238 460.663 315.734 461.779 316.292 462.926 316.633 464.104 316.757 465.282 316.881 467.173 316.943 469.777 316.943 Z M418.534 322.43 C413.388 322.43 407.25 321.934 400.12 320.942 L400.12 313.409 C407.312 314.959 413.636 315.734 419.092 315.734 423.68 315.734 427.028 315.223 429.136 314.199 431.244 313.176 432.298 311.27 432.298 308.48 L432.298 300.668 C432.298 298.064 431.554 296.235 430.066 295.181 428.578 294.127 425.974 293.6 422.254 293.6 L415.186 293.6 C409.296 293.6 405.111 292.422 402.631 290.066 400.151 287.71 398.911 284.052 398.911 279.092 L398.911 274.256 C398.911 270.97 399.639 268.304 401.096 266.258 402.553 264.212 405.002 262.693 408.444 261.701 411.885 260.709 416.612 260.213 422.626 260.213 426.656 260.213 431.833 260.554 438.157 261.236 L438.157 268.025 C431.089 266.971 425.695 266.444 421.975 266.444 416.209 266.444 412.396 267.002 410.536 268.118 408.614 269.296 407.653 271.249 407.653 273.977 L407.653 280.859 C407.653 282.967 408.413 284.501 409.931 285.462 411.451 286.423 414.07 286.904 417.79 286.904 L425.044 286.904 C429.198 286.904 432.438 287.4 434.763 288.392 437.088 289.384 438.73 290.887 439.691 292.902 440.652 294.918 441.133 297.63 441.133 301.04 L441.133 305.411 C441.133 309.689 440.342 313.068 438.762 315.548 437.18 318.028 434.747 319.795 431.461 320.849 428.175 321.903 423.866 322.43 418.534 322.43 Z M353.992 322.43 C340.228 322.43 333.346 317.842 333.346 308.666 L333.346 290.903 C333.346 285.447 334.911 281.526 338.043 279.138 341.174 276.751 346.242 275.558 353.248 275.558 359.882 275.558 364.671 276.705 367.616 278.999 370.562 281.293 372.034 285.261 372.034 290.903 L372.034 300.854 341.809 300.854 341.809 307.643 C341.809 310.743 342.894 312.975 345.064 314.339 347.234 315.703 350.582 316.385 355.108 316.385 359.386 316.385 364.439 315.641 370.267 314.153 L370.267 320.57 C364.563 321.81 359.138 322.43 353.992 322.43 Z M363.664 295.367 L363.664 288.299 C363.664 285.571 362.842 283.695 361.199 282.672 359.556 281.65 356.751 281.138 352.783 281.138 348.939 281.138 346.149 281.65 344.413 282.672 342.677 283.695 341.809 285.571 341.809 288.299 L341.809 295.367 Z M312.793 322.43 C309.693 322.43 307.445 322.368 306.051 322.244 304.655 322.12 303.059 321.81 301.261 321.314 299.339 320.818 297.851 320.074 296.797 319.082 295.743 318.09 294.844 316.633 294.1 314.711 293.356 312.851 292.984 310.526 292.984 307.736 L292.984 291.182 C292.984 286.16 293.945 282.564 295.867 280.394 296.921 279.154 297.991 278.208 299.076 277.557 300.16 276.906 301.571 276.457 303.307 276.209 305.043 275.961 306.593 275.79 307.957 275.698 309.321 275.604 311.243 275.558 313.723 275.558 318.001 275.558 322.279 276.023 326.557 276.953 L326.557 283.091 C321.597 281.851 316.978 281.231 312.7 281.231 309.476 281.231 307.105 281.464 305.586 281.928 304.066 282.393 303.013 283.23 302.423 284.44 301.835 285.648 301.54 287.493 301.54 289.973 L301.54 308.387 C301.54 310.681 301.866 312.386 302.517 313.502 303.168 314.618 304.345 315.409 306.051 315.874 307.756 316.339 310.282 316.571 313.63 316.571 318.156 316.571 322.682 315.982 327.208 314.804 L327.208 321.128 C322.992 321.996 318.187 322.43 312.793 322.43 Z M244.159 276.488 L252.529 276.488 252.529 281.975 C253.397 277.697 258.326 275.558 267.316 275.558 273.082 275.558 277.128 276.596 279.453 278.673 281.778 280.751 282.94 284.021 282.94 288.485 L282.94 321.5 274.57 321.5 274.57 288.95 C274.57 287.772 274.477 286.811 274.291 286.067 274.105 285.323 273.733 284.579 273.175 283.835 271.935 282.285 269.176 281.51 264.898 281.51 261.612 281.51 259.086 281.742 257.319 282.207 255.551 282.672 254.312 283.432 253.598 284.486 252.885 285.54 252.529 287.028 252.529 288.95 L252.529 321.5 244.159 321.5 Z M210.772 322.43 C206.494 322.43 203.193 322.027 200.867 321.221 198.542 320.415 196.868 318.989 195.846 316.943 194.822 314.897 194.311 311.952 194.311 308.108 194.311 304.698 194.791 302.048 195.753 300.156 196.714 298.266 198.356 296.917 200.682 296.111 203.007 295.305 206.308 294.902 210.586 294.902 L224.071 294.902 224.071 287.741 C224.071 286.067 223.745 284.781 223.094 283.882 222.443 282.982 221.359 282.347 219.839 281.975 218.32 281.603 216.104 281.417 213.19 281.417 208.54 281.417 203.394 281.789 197.752 282.533 L197.752 276.395 C203.89 275.837 209.439 275.558 214.399 275.558 219.607 275.558 223.451 275.945 225.931 276.72 228.411 277.496 230.116 278.844 231.046 280.766 231.976 282.688 232.441 285.664 232.441 289.694 L232.441 321.5 224.35 321.5 224.35 317.222 C223.668 320.694 219.142 322.43 210.772 322.43 Z M212.167 316.943 C215.205 316.943 217.778 316.726 219.886 316.292 222.676 315.734 224.071 314.432 224.071 312.386 L224.071 300.11 211.144 300.11 C208.478 300.11 206.556 300.311 205.378 300.715 204.2 301.117 203.425 301.877 203.053 302.993 202.681 304.109 202.495 305.907 202.495 308.387 202.495 310.619 202.712 312.339 203.146 313.548 203.58 314.758 204.355 315.625 205.471 316.152 206.587 316.68 208.261 316.943 210.493 316.943 Z M176.827 256.4 L185.197 256.4 185.197 321.5 176.827 321.5 Z M148.834 322.43 C135.07 322.43 128.188 317.842 128.188 308.666 L128.188 290.903 C128.188 285.447 129.753 281.526 132.885 279.138 136.016 276.751 141.084 275.558 148.09 275.558 154.724 275.558 159.513 276.705 162.458 278.999 165.404 281.293 166.876 285.261 166.876 290.903 L166.876 300.854 136.651 300.854 136.651 307.643 C136.651 310.743 137.736 312.975 139.906 314.339 142.076 315.703 145.424 316.385 149.95 316.385 154.228 316.385 159.281 315.641 165.109 314.153 L165.109 320.57 C159.405 321.81 153.98 322.43 148.834 322.43 Z M158.506 295.367 L158.506 288.299 C158.506 285.571 157.685 283.695 156.042 282.672 154.398 281.65 151.593 281.138 147.625 281.138 143.781 281.138 140.991 281.65 139.255 282.672 137.519 283.695 136.651 285.571 136.651 288.299 L136.651 295.367 Z M101.869 322.43 C88.105 322.43 81.223 317.842 81.223 308.666 L81.223 290.903 C81.223 285.447 82.788 281.526 85.92 279.138 89.051 276.751 94.119 275.558 101.125 275.558 107.759 275.558 112.548 276.705 115.493 278.999 118.439 281.293 119.911 285.261 119.911 290.903 L119.911 300.854 89.686 300.854 89.686 307.643 C89.686 310.743 90.771 312.975 92.941 314.339 95.111 315.703 98.459 316.385 102.985 316.385 107.263 316.385 112.316 315.641 118.144 314.153 L118.144 320.57 C112.44 321.81 107.015 322.43 101.869 322.43 Z M111.541 295.367 L111.541 288.299 C111.541 285.571 110.72 283.695 109.076 282.672 107.433 281.65 104.628 281.138 100.66 281.138 96.816 281.138 94.026 281.65 92.29 282.672 90.554 283.695 89.686 285.571 89.686 288.299 L89.686 295.367 Z M53.044 276.488 L60.949 276.488 60.949 283.835 C60.949 282.409 61.569 281.061 62.809 279.789 64.049 278.518 65.63 277.496 67.552 276.72 69.474 275.945 71.365 275.558 73.225 275.558 L77.317 275.558 77.317 282.719 72.667 282.719 C68.699 282.719 65.832 283.23 64.064 284.254 62.297 285.276 61.414 287.121 61.414 289.787 L61.414 321.5 53.044 321.5 Z M4.312 261.143 L45.79 261.143 45.79 267.467 13.333 267.467 13.333 287.183 42.721 287.183 42.721 293.507 13.333 293.507 13.333 321.5 4.312 321.5 Z" fill="#ffffff" fill-opacity="1" stroke="none"/>
</svg>
