<?xml version="1.0" encoding="UTF-8"?>
<svg width="1000px" height="1000px" viewBox="0 0 1000 1000" xmlns="http://www.w3.org/2000/svg" xmlns:xlink="http://www.w3.org/1999/xlink" version="1.1">
 <!-- Generated by Pixelmator Pro 1.6.1 -->
 <path id="m" d="M24.905 293.76 L102.305 293.76 102.305 344.5 C110.332 304.94 157.058 285.16 242.485 285.16 311.859 285.16 355.145 304.08 372.345 341.92 377.505 323.573 393.128 309.527 419.215 299.78 445.302 290.033 477.265 285.16 515.105 285.16 566.705 285.16 603.112 294.763 624.325 313.97 645.538 333.177 656.145 363.42 656.145 404.7 L656.145 710 578.745 710 578.745 409.86 C578.745 398.967 577.885 390.08 576.165 383.2 574.445 376.32 571.005 369.44 565.845 362.56 554.378 348.227 528.865 341.06 489.305 341.06 458.918 341.06 436.272 343.067 421.365 347.08 406.458 351.093 396.282 357.973 390.835 367.72 385.388 377.467 382.665 391.513 382.665 409.86 L382.665 710 305.265 710 305.265 409.86 C305.265 398.967 304.405 390.08 302.685 383.2 300.965 376.32 297.525 369.44 292.365 362.56 280.898 348.227 255.672 341.06 216.685 341.06 185.152 341.06 161.358 343.067 145.305 347.08 129.252 351.093 118.072 357.83 111.765 367.29 105.458 376.75 102.305 390.94 102.305 409.86 L102.305 710 24.905 710 Z" fill="#ffffff" fill-opacity="1" stroke="none"/>
 <defs>
  <path id="Terminal" d="M967.372 516.573 C976.524 507.42 976.524 492.581 967.372 483.429 L777.583 293.64 C768.431 284.488 753.591 284.488 744.438 293.64 L722.303 315.776 C713.165 324.914 713.148 339.724 722.263 348.883 L872.674 500 722.262 651.119 C713.147 660.279 713.164 675.088 722.302 684.226 L744.438 706.362 C753.591 715.514 768.43 715.514 777.583 706.362 Z"/>
 </defs>
 <use id="Terminal-1" xlink:href="#Terminal" fill="#fb7516" fill-opacity="1" stroke="none"/>
 <defs>
  <path id="stroke-path" d="M766.516 709.984 L769.297 709.016 772.953 706.984 775.969 704.453 965.531 514.875 967.953 512 970.016 508.313 971.234 504.531 971.703 500.578 971.422 496.453 970.375 492.609 968.563 488.953 966.672 486.375 775.969 295.563 772.953 293.031 769.297 291 765.531 289.781 761.531 289.297 757.438 289.594 753.672 290.625 749.922 292.469 746.047 295.563 723.75 317.875 721.688 320.391 720.141 323.016 718.453 327.797 718 333.906 718.938 338.766 721.078 343.375 724.156 347.266 876.203 500.016 724.094 652.813 721.688 655.703 719.641 659.375 718.234 664.141 718 669.203 718.953 674.125 720.578 677.828 723.75 682.125 748.328 706.453 750.719 708.047 754.609 709.734 758.469 710.563 762.484 710.672 Z"/>
 </defs>
 <use id="Terminal-2" stroke="#ffffff" stroke-opacity="1" stroke-linecap="round" fill="none" stroke-width="5" xlink:href="#stroke-path"/>
</svg>
